<?xml version="1.0" standalone="no"?>
<!DOCTYPE svg PUBLIC "-//W3C//DTD SVG 20010904//EN"
 "http://www.w3.org/TR/2001/REC-SVG-20010904/DTD/svg10.dtd">
<svg version="1.0" xmlns="http://www.w3.org/2000/svg"
 width="419.000000pt" height="419.000000pt" viewBox="0 0 419.000000 419.000000"
 preserveAspectRatio="xMidYMid meet">
<metadata>
Created by potrace 1.14, written by Peter Selinger 2001-2017
</metadata>
<g transform="translate(0.000000,419.000000) scale(0.100000,-0.100000)"
fill="#000000" stroke="none">
<path d="M2068 3781 l-18 -60 -66 -3 -66 -3 46 -34 c25 -19 45 -35 43 -36 -1
0 -58 2 -127 5 l-125 5 3 40 c3 38 11 77 27 120 4 11 -4 4 -17 -15 -14 -19
-35 -62 -47 -96 l-22 -60 -107 -12 c-117 -13 -240 -43 -374 -92 l-88 -32 -1
-186 c0 -103 -2 -207 -4 -232 -2 -25 -6 -88 -9 -140 -3 -52 -9 -140 -13 -195
-15 -202 -9 -497 13 -596 3 -13 7 -33 8 -44 18 -107 121 -319 201 -411 166
-191 386 -354 674 -498 l94 -48 86 43 c47 24 113 59 146 78 64 37 267 169 275
180 3 3 30 26 60 51 233 191 361 402 409 676 16 92 19 146 16 339 -2 127 -6
241 -9 255 -10 54 -20 286 -20 498 l-1 222 -70 29 c-130 54 -295 95 -435 108
-36 3 -67 7 -69 9 -2 2 -13 29 -23 60 -11 31 -30 73 -44 93 -26 39 -30 37 -13
-6 12 -32 16 -52 22 -105 4 -33 2 -38 -17 -38 -245 -6 -239 -6 -216 12 12 10
34 26 48 37 l27 20 -67 1 c-47 0 -68 4 -69 13 0 6 -10 34 -22 60 l-22 48 -17
-60z"/>
<path d="M1028 3608 c-37 -49 -49 -76 -68 -148 -10 -36 -21 -74 -24 -85 -4
-11 0 -6 10 10 9 17 36 51 59 76 41 47 65 103 65 153 0 35 -12 33 -42 -6z"/>
<path d="M3110 3608 c0 -47 41 -127 84 -166 20 -18 36 -39 36 -47 0 -7 4 -17
10 -20 5 -3 3 14 -4 37 -8 24 -22 68 -31 98 -17 53 -67 130 -86 130 -5 0 -9
-15 -9 -32z"/>
<path d="M3296 3462 c-4 -28 -11 -54 -16 -57 -6 -3 -10 -14 -10 -24 0 -23 -29
-49 -38 -34 -10 15 -95 74 -99 69 -6 -6 25 -65 55 -103 13 -18 39 -42 58 -54
19 -11 34 -28 35 -37 0 -14 2 -14 5 -2 3 8 15 35 27 60 25 53 27 146 4 199
l-14 33 -7 -50z"/>
<path d="M861 3468 c-17 -54 -20 -95 -10 -139 11 -46 48 -106 58 -92 3 4 23
21 44 36 32 25 97 117 97 140 0 11 -54 -22 -89 -54 -29 -26 -29 -26 -40 -5
-20 38 -38 101 -36 124 3 33 -12 27 -24 -10z"/>
<path d="M781 3208 c-20 -53 8 -156 56 -208 13 -14 23 -28 23 -33 0 -13 60 55
77 88 9 17 22 53 29 82 11 48 11 51 -5 41 -10 -6 -31 -30 -47 -54 -16 -23 -33
-42 -39 -41 -5 1 -24 24 -42 52 -30 44 -38 65 -34 88 2 16 -10 6 -18 -15z"/>
<path d="M3382 3200 c-11 -33 -64 -120 -74 -123 -3 -1 -22 21 -43 48 -21 28
-39 52 -41 54 -1 1 -7 0 -12 -3 -21 -13 27 -130 73 -179 l27 -28 24 22 c50 47
79 142 64 214 l-6 30 -12 -35z"/>
<path d="M892 3200 c0 -14 2 -19 5 -12 2 6 2 18 0 25 -3 6 -5 1 -5 -13z"/>
<path d="M3290 3135 c0 -5 5 -17 10 -25 5 -8 10 -10 10 -5 0 6 -5 17 -10 25
-5 8 -10 11 -10 5z"/>
<path d="M758 2912 c-16 -59 26 -165 82 -210 l29 -22 25 33 c33 43 56 109 56
160 l0 41 -23 -31 c-13 -18 -31 -47 -41 -66 l-19 -34 -38 42 c-21 23 -45 57
-52 75 -12 27 -15 29 -19 12z"/>
<path d="M861 2904 c0 -11 3 -14 6 -6 3 7 2 16 -1 19 -3 4 -6 -2 -5 -13z"/>
<path d="M3405 2900 c-6 -20 -71 -103 -85 -108 -4 -1 -24 25 -44 58 -20 33
-40 60 -43 60 -6 0 1 -77 11 -118 6 -27 40 -85 60 -101 10 -8 21 -3 48 23 45
44 69 95 73 157 3 49 -8 66 -20 29z"/>
<path d="M770 2625 c0 -75 40 -156 97 -195 33 -22 34 -23 48 -4 27 36 56 126
54 170 -2 35 -5 41 -16 32 -7 -6 -13 -14 -13 -18 0 -4 -12 -29 -26 -54 l-27
-47 -37 38 c-21 21 -47 54 -59 73 l-21 35 0 -30z"/>
<path d="M3391 2621 c-13 -29 -82 -101 -98 -101 -5 0 -22 27 -38 60 -23 48
-31 57 -38 44 -5 -9 -6 -37 -2 -62 6 -49 51 -152 64 -152 10 0 61 39 79 60 24
28 45 84 50 133 5 54 0 59 -17 18z"/>
<path d="M978 2330 c-8 -19 -20 -52 -27 -72 l-12 -37 -49 37 c-26 20 -54 47
-61 60 -20 35 -28 26 -17 -20 15 -70 59 -127 120 -159 l36 -18 17 42 c21 52
30 144 17 177 l-9 25 -15 -35z"/>
<path d="M3175 2320 c-8 -46 1 -108 22 -162 l15 -37 36 18 c52 27 90 70 111
127 20 52 18 94 -3 57 -6 -12 -35 -40 -65 -63 -30 -24 -51 -38 -47 -31 4 6 3
11 -2 11 -4 0 -16 25 -26 55 -21 69 -32 76 -41 25z"/>
<path d="M3196 2083 c-6 -14 -5 -15 5 -6 7 7 10 15 7 18 -3 3 -9 -2 -12 -12z"/>
<path d="M977 2069 c4 -13 8 -18 11 -10 2 7 -1 18 -6 23 -8 8 -9 4 -5 -13z"/>
<path d="M1029 2070 c-1 -11 -3 -24 -4 -30 -1 -5 -3 -22 -4 -36 0 -14 -5 -23
-10 -20 -4 3 -6 -6 -3 -19 l4 -25 -63 35 c-35 20 -70 43 -76 52 -7 9 -13 12
-13 6 0 -53 82 -145 145 -164 25 -7 45 -17 45 -21 0 -4 3 -8 8 -8 18 0 16 183
-3 220 -18 35 -25 38 -26 10z"/>
<path d="M3126 2058 c-18 -42 -24 -125 -12 -176 8 -35 14 -36 81 -6 55 24 108
85 121 140 6 26 5 27 -7 12 -17 -21 -136 -88 -143 -81 -2 3 0 16 5 30 5 14 7
28 4 31 -3 3 -6 -1 -6 -9 -1 -8 -7 11 -14 41 l-12 55 -17 -37z"/>
<path d="M3001 1793 c-16 -41 -28 -113 -23 -148 3 -16 5 -42 6 -57 0 -16 5
-23 11 -18 6 4 24 11 41 14 17 4 46 18 64 31 40 29 90 102 90 130 0 19 -1 19
-18 -1 -15 -20 -110 -74 -129 -74 -5 0 -8 12 -9 28 -1 30 -14 115 -19 120 -1
1 -7 -10 -14 -25z"/>
<path d="M1160 1800 c-1 -8 -3 -24 -5 -35 -3 -11 -5 -35 -7 -53 -1 -18 -5 -35
-9 -37 -11 -7 -112 46 -132 68 -16 19 -17 20 -14 1 13 -69 75 -135 144 -156
36 -10 50 -22 74 -60 16 -27 31 -48 34 -48 3 0 -9 22 -25 49 -27 43 -30 55
-23 93 9 52 9 52 0 109 -8 48 -35 98 -37 69z"/>
<path d="M1100 1740 c6 -11 13 -20 16 -20 2 0 0 9 -6 20 -6 11 -13 20 -16 20
-2 0 0 -9 6 -20z"/>
<path d="M3062 1715 c-17 -37 -14 -45 4 -12 9 16 14 31 11 33 -2 2 -9 -7 -15
-21z"/>
<path d="M1266 1621 c-10 -16 -14 -91 -6 -125 l7 -34 -70 24 c-38 13 -75 28
-81 32 -6 5 -19 12 -29 15 -45 16 47 -99 102 -127 14 -7 50 -19 79 -26 43 -10
64 -23 118 -76 37 -35 71 -64 78 -64 6 0 -5 13 -24 28 -87 68 -108 105 -116
209 -4 46 -14 93 -25 115 -20 40 -24 43 -33 29z"/>
<path d="M2882 1589 c-13 -27 -22 -67 -23 -104 -3 -103 -37 -160 -141 -236
-31 -23 -38 -8 -14 26 29 42 67 117 62 122 -19 19 -136 -78 -136 -113 0 -22
-87 -101 -110 -99 -44 3 -157 -17 -227 -40 -68 -23 -174 -80 -181 -97 -6 -14
-28 -9 -54 11 -32 26 -132 76 -191 95 -44 15 -79 21 -182 30 -22 2 -47 7 -56
11 -18 7 -79 79 -79 93 0 32 -118 127 -136 109 -4 -3 14 -40 39 -81 l45 -75
-27 -5 c-129 -25 -190 -40 -186 -46 7 -11 111 -41 152 -44 21 -1 62 3 91 10
49 11 177 11 242 1 88 -15 207 -60 272 -103 l50 -34 31 24 c122 92 377 147
522 113 86 -20 185 -8 238 28 16 11 6 15 -72 31 l-90 18 72 67 c62 58 82 70
143 88 76 22 128 62 158 119 18 35 12 40 -22 16 -25 -17 -132 -56 -132 -48 0
3 9 19 21 35 11 16 17 29 12 29 -4 0 -18 -17 -30 -38 l-22 -37 4 66 c3 44 0
73 -9 84 -12 16 -15 14 -34 -26z"/>
<path d="M2505 1010 c3 -5 8 -10 11 -10 2 0 4 5 4 10 0 6 -5 10 -11 10 -5 0
-7 -4 -4 -10z"/>
<path d="M2479 996 c7 -8 9 -21 5 -27 -4 -8 -3 -9 4 -5 17 10 15 33 -4 40 -14
5 -15 4 -5 -8z"/>
<path d="M2940 990 c0 -5 7 -7 15 -4 8 4 15 8 15 10 0 2 -7 4 -15 4 -8 0 -15
-4 -15 -10z"/>
<path d="M1449 978 c7 -10 11 -29 9 -43 -3 -13 -1 -22 3 -19 15 9 10 51 -8 65
-16 13 -17 12 -4 -3z"/>
<path d="M1214 965 c-3 -8 -4 -20 -2 -27 3 -7 7 -1 10 15 6 29 1 36 -8 12z"/>
<path d="M2640 970 c-13 -8 -12 -10 3 -10 9 0 17 5 17 10 0 12 -1 12 -20 0z"/>
<path d="M2678 967 c-7 -7 -21 -16 -30 -20 -10 -3 -18 -12 -17 -19 0 -10 2
-10 6 0 2 6 10 12 17 12 7 0 21 9 31 20 20 22 14 28 -7 7z"/>
<path d="M2881 966 c-10 -12 -8 -13 8 -9 12 3 18 9 15 14 -7 12 -10 11 -23 -5z"/>
<path d="M2206 957 c3 -10 9 -15 12 -12 3 3 0 11 -7 18 -10 9 -11 8 -5 -6z"/>
<path d="M2440 960 c0 -5 7 -10 15 -10 8 0 15 5 15 10 0 6 -7 10 -15 10 -8 0
-15 -4 -15 -10z"/>
<path d="M2585 959 c-4 -6 -5 -12 -2 -15 2 -3 7 2 10 11 7 17 1 20 -8 4z"/>
<path d="M1275 950 c-3 -5 1 -10 10 -10 9 0 13 5 10 10 -3 6 -8 10 -10 10 -2
0 -7 -4 -10 -10z"/>
<path d="M1401 944 c0 -11 3 -14 6 -6 3 7 2 16 -1 19 -3 4 -6 -2 -5 -13z"/>
<path d="M1795 950 c-16 -7 -17 -9 -3 -9 9 -1 20 4 23 9 7 11 7 11 -20 0z"/>
<path d="M2070 939 c-22 -18 -22 -19 -3 -10 12 6 25 16 28 21 9 15 3 12 -25
-11z"/>
<path d="M2930 945 c-19 -23 -8 -25 14 -4 11 11 15 19 9 19 -6 0 -16 -7 -23
-15z"/>
<path d="M1490 942 c0 -4 10 -13 23 -21 22 -14 22 -14 3 8 -20 22 -26 25 -26
13z"/>
<path d="M1605 940 c-3 -6 1 -7 9 -4 18 7 21 14 7 14 -6 0 -13 -4 -16 -10z"/>
<path d="M1645 940 c-3 -5 -1 -10 4 -10 6 0 11 5 11 10 0 6 -2 10 -4 10 -3 0
-8 -4 -11 -10z"/>
<path d="M1735 942 c-13 -9 -17 -32 -6 -32 9 0 24 30 18 36 -1 2 -7 0 -12 -4z"/>
<path d="M2185 940 c-3 -5 -1 -10 4 -10 6 0 11 5 11 10 0 6 -2 10 -4 10 -3 0
-8 -4 -11 -10z"/>
<path d="M2335 940 c-3 -5 -1 -10 4 -10 6 0 11 5 11 10 0 6 -2 10 -4 10 -3 0
-8 -4 -11 -10z"/>
<path d="M2365 940 c-3 -5 -1 -10 4 -10 6 0 11 5 11 10 0 6 -2 10 -4 10 -3 0
-8 -4 -11 -10z"/>
<path d="M1307 929 c-9 -6 -26 -7 -37 -4 -11 4 -20 2 -20 -4 0 -16 52 -13 74
4 22 17 10 20 -17 4z"/>
<path d="M1372 927 c-8 -10 -6 -13 8 -14 13 -1 17 3 13 13 -6 17 -8 17 -21 1z"/>
<path d="M1557 926 c-4 -10 0 -12 14 -9 10 3 16 9 13 14 -8 13 -21 11 -27 -5z"/>
<path d="M1682 925 c-11 -13 -10 -15 7 -15 14 0 19 5 15 15 -7 18 -6 18 -22 0z"/>
<path d="M1880 925 c-11 -13 -7 -15 29 -15 22 0 41 4 41 8 0 5 -14 6 -31 4
-22 -3 -30 -1 -25 7 10 16 1 14 -14 -4z"/>
<path d="M2240 928 c0 -15 8 -18 43 -16 40 1 40 1 7 5 -19 3 -38 10 -42 16 -5
8 -8 6 -8 -5z"/>
<path d="M2717 926 c-5 -13 2 -16 41 -14 40 1 42 2 12 5 -19 3 -38 9 -41 15
-4 5 -9 3 -12 -6z"/>
<path d="M2870 929 c0 -5 9 -9 20 -9 11 0 20 2 20 4 0 2 -9 6 -20 9 -11 3 -20
1 -20 -4z"/>
<path d="M1760 918 c0 -4 21 -8 48 -7 52 1 48 6 -10 11 -21 2 -38 0 -38 -4z"/>
<path d="M1970 922 c0 -18 29 -27 43 -13 9 9 8 11 -7 5 -11 -4 -21 -2 -27 7
-6 10 -9 11 -9 1z"/>
<path d="M2425 919 c-4 -6 -13 -8 -21 -5 -8 3 -14 1 -14 -4 0 -16 37 -11 44 5
6 17 0 20 -9 4z"/>
<path d="M2530 918 c0 -20 18 -23 40 -7 12 9 12 10 -4 5 -11 -4 -23 -1 -28 6
-6 10 -8 8 -8 -4z"/>
<path d="M2820 918 c0 -11 8 -18 20 -18 11 0 20 5 20 11 0 5 -5 7 -11 3 -6 -3
-15 0 -20 7 -7 11 -9 10 -9 -3z"/>
<path d="M1788 893 c7 -3 16 -2 19 1 4 3 -2 6 -13 5 -11 0 -14 -3 -6 -6z"/>
<path d="M2578 893 c7 -3 16 -2 19 1 4 3 -2 6 -13 5 -11 0 -14 -3 -6 -6z"/>
<path d="M2074 812 c-30 -21 -19 -62 17 -62 29 0 40 24 23 48 -16 24 -23 26
-40 14z"/>
<path d="M1410 798 c0 -19 64 -67 102 -76 66 -16 110 -6 158 36 19 15 19 16
-2 30 -15 11 -53 15 -139 16 -66 1 -119 -2 -119 -6z"/>
<path d="M2515 790 l-26 -17 33 -25 c62 -47 164 -40 218 14 36 35 39 52 8 42
-20 -6 -59 -6 -165 0 -27 2 -52 -4 -68 -14z"/>
<path d="M1810 793 c-74 -20 -113 -57 -124 -116 -6 -34 1 -34 37 1 27 25 34
27 129 30 98 2 148 16 148 41 0 20 -150 54 -190 44z"/>
<path d="M2285 793 c-38 -7 -105 -35 -105 -44 0 -25 50 -39 147 -41 100 -3
102 -3 136 -36 l35 -34 -7 39 c-4 21 -14 48 -21 60 -22 35 -125 66 -185 56z"/>
<path d="M1589 657 c-29 -25 -47 -67 -29 -67 15 0 80 64 80 79 0 18 -23 13
-51 -12z"/>
<path d="M1992 668 c-7 -7 -12 -15 -12 -19 0 -12 53 6 58 19 5 16 -30 16 -46
0z"/>
<path d="M2136 666 c6 -15 44 -29 54 -20 7 7 -30 34 -47 34 -7 0 -10 -6 -7
-14z"/>
<path d="M2540 675 c0 -29 71 -97 87 -82 7 8 -17 49 -41 69 -19 16 -46 24 -46
13z"/>
<path d="M1395 662 c-58 -6 -105 -23 -130 -46 -30 -28 -47 -78 -37 -107 7 -17
9 -15 20 15 15 41 50 59 146 75 63 11 126 41 126 59 0 8 -71 10 -125 4z"/>
<path d="M2660 660 c0 -20 64 -52 122 -61 119 -18 131 -27 161 -109 7 -19 12
29 8 74 -2 25 -60 75 -99 85 -49 13 -192 21 -192 11z"/>
<path d="M2252 545 c0 -16 2 -22 5 -12 2 9 2 23 0 30 -3 6 -5 -1 -5 -18z"/>
<path d="M1680 540 l-25 -21 28 12 c15 7 27 16 27 21 0 11 -1 10 -30 -12z"/>
<path d="M2525 510 c-3 -5 -1 -10 4 -10 6 0 11 5 11 10 0 6 -2 10 -4 10 -3 0
-8 -4 -11 -10z"/>
<path d="M1610 500 c0 -5 5 -10 10 -10 6 0 10 5 10 10 0 6 -4 10 -10 10 -5 0
-10 -4 -10 -10z"/>
<path d="M2196 493 c-14 -7 -26 -18 -26 -24 0 -6 7 -3 16 5 8 9 26 16 40 16
13 0 24 4 24 8 0 13 -25 10 -54 -5z"/>
<path d="M2050 490 c0 -5 5 -10 10 -10 6 0 10 5 10 10 0 6 -4 10 -10 10 -5 0
-10 -4 -10 -10z"/>
<path d="M2321 484 c0 -11 3 -14 6 -6 3 7 2 16 -1 19 -3 4 -6 -2 -5 -13z"/>
<path d="M2481 484 c0 -11 3 -14 6 -6 3 7 2 16 -1 19 -3 4 -6 -2 -5 -13z"/>
<path d="M1947 476 c-9 -23 -66 -44 -114 -41 -43 2 -57 -8 -27 -19 27 -10 45
-7 103 21 69 33 67 31 54 44 -7 7 -12 6 -16 -5z"/>
<path d="M1632 450 c-18 -16 -26 -30 -19 -29 11 0 65 59 54 59 -2 0 -18 -13
-35 -30z"/>
<path d="M1737 462 c-10 -10 -17 -22 -17 -27 0 -5 -8 -18 -17 -30 -10 -12 -2
-4 17 17 20 21 41 38 48 38 6 0 12 5 12 10 0 16 -26 11 -43 -8z"/>
<path d="M1830 471 c0 -6 9 -9 20 -8 11 1 20 5 20 9 0 4 -9 8 -20 8 -11 0 -20
-4 -20 -9z"/>
<path d="M2514 469 c-3 -6 -1 -15 6 -19 8 -5 8 -9 -4 -13 -9 -4 -20 1 -25 11
-8 14 -10 14 -11 2 0 -8 4 -22 10 -30 7 -12 12 -12 29 4 15 14 18 22 10 32 -8
9 -4 14 13 17 22 4 22 4 1 6 -12 0 -25 -4 -29 -10z"/>
<path d="M2054 455 c4 -11 0 -15 -12 -13 -9 2 -19 6 -22 9 -3 4 -14 -5 -24
-18 -17 -24 -17 -25 -1 -16 10 6 25 8 34 6 9 -2 25 4 34 15 16 18 17 20 1 26
-12 5 -15 2 -10 -9z"/>
<path d="M2200 455 c0 -6 9 -11 20 -11 11 0 20 5 20 11 0 6 -9 11 -20 11 -11
0 -20 -5 -20 -11z"/>
<path d="M2293 449 c3 -12 0 -22 -9 -26 -12 -4 -11 -8 4 -22 10 -9 17 -23 15
-31 -3 -10 2 -8 12 5 14 18 14 20 -5 27 -19 7 -20 9 -5 31 15 23 12 37 -8 37
-5 0 -7 -9 -4 -21z"/>
<path d="M2352 435 c3 -17 11 -20 46 -19 24 1 48 6 53 11 7 7 -6 9 -38 8 -27
-2 -51 2 -56 9 -5 7 -7 3 -5 -9z"/>
<path d="M2554 434 c3 -9 6 -18 6 -20 0 -2 5 -4 11 -4 8 0 7 6 -2 17 -12 15
-12 16 4 10 9 -3 17 -2 17 3 0 6 -9 10 -21 10 -15 0 -19 -4 -15 -16z"/>
<path d="M2093 430 c3 -20 16 -40 26 -40 5 0 19 9 32 20 l24 20 -29 -10 c-23
-9 -31 -7 -42 7 -10 14 -12 14 -11 3z"/>
<path d="M2390 390 c0 -5 5 -10 10 -10 6 0 10 5 10 10 0 6 -4 10 -10 10 -5 0
-10 -4 -10 -10z"/>
<path d="M2490 390 c0 -5 5 -10 11 -10 5 0 7 5 4 10 -3 6 -8 10 -11 10 -2 0
-4 -4 -4 -10z"/>
</g>
</svg>
